<svg viewBox="0 0 202 133" fill="none" xmlns="http://www.w3.org/2000/svg" aria-hidden="true" class="kDu3nf"><path d="M47.1325 28.6709H4.15875C1.87144 28.6709 0 26.7937 0 24.4994V9.20376C0 6.90942 1.87144 5.03223 4.15875 5.03223H47.1325C48.6574 5.03223 49.905 6.28369 49.905 7.81325V25.8899C49.905 27.4194 48.6574 28.6709 47.1325 28.6709Z" fill="#DADCE0"></path><path d="M81.7894 85.6822H7.625V73.1676C7.625 70.8733 9.49644 68.9961 11.7838 68.9961H77.6306C79.918 68.9961 81.7894 70.8733 81.7894 73.1676V85.6822Z" stroke="#5F6368" stroke-width="2" stroke-miterlimit="10"></path><path d="M12.8233 19.6324C14.3545 19.6324 15.5958 18.3872 15.5958 16.8513C15.5958 15.3154 14.3545 14.0703 12.8233 14.0703C11.2921 14.0703 10.0508 15.3154 10.0508 16.8513C10.0508 18.3872 11.2921 19.6324 12.8233 19.6324Z" fill="#5F6368"></path><path d="M37.0821 19.6324C38.6133 19.6324 39.8546 18.3872 39.8546 16.8513C39.8546 15.3154 38.6133 14.0703 37.0821 14.0703C35.5509 14.0703 34.3096 15.3154 34.3096 16.8513C34.3096 18.3872 35.5509 19.6324 37.0821 19.6324Z" fill="#5F6368"></path><path d="M13.1699 28.6709V68.9957" stroke="#5F6368" stroke-width="2" stroke-miterlimit="10"></path><path d="M36.7363 28.6709V68.9957" stroke="#5F6368" stroke-width="2" stroke-miterlimit="10"></path><path d="M189.224 131.568V48.833" stroke="#5F6368" stroke-width="2" stroke-miterlimit="10" stroke-linecap="round" stroke-linejoin="round"></path><path d="M81.7894 73.1676L7.625 80.8154V74.2105C7.625 71.36 9.98163 68.9961 12.8234 68.9961H79.71L81.7894 73.1676Z" fill="#5F6368"></path><path d="M200.359 48.833V131.568" stroke="#5F6368" stroke-width="2" stroke-miterlimit="10" stroke-linecap="round" stroke-linejoin="round"></path><path d="M65.1533 85.6826V131.569" stroke="#5F6368" stroke-width="2" stroke-miterlimit="10" stroke-linecap="round" stroke-linejoin="round"></path><path d="M81.7891 85.6826V131.569" stroke="#5F6368" stroke-width="2" stroke-miterlimit="10" stroke-linecap="round" stroke-linejoin="round"></path><path d="M113.626 48.833V131.568" stroke="#5F6368" stroke-width="2" stroke-miterlimit="10" stroke-linecap="round" stroke-linejoin="round"></path><path d="M125.398 68.8467L125.456 131.569" stroke="#5F6368" stroke-width="2" stroke-miterlimit="10" stroke-linecap="round" stroke-linejoin="round"></path><path d="M7.625 85.6826V131.569" stroke="#5F6368" stroke-width="2" stroke-miterlimit="10" stroke-linecap="round" stroke-linejoin="round"></path><path d="M201.006 72.472H112.979V45.3571C112.979 43.0627 114.851 41.1855 117.138 41.1855H196.848C199.135 41.1855 201.006 43.0627 201.006 45.3571V72.472Z" fill="#DADCE0"></path><path d="M24.2598 85.6826V131.569" stroke="#5F6368" stroke-width="2" stroke-miterlimit="10" stroke-linecap="round" stroke-linejoin="round"></path><path d="M131.694 64.8247C133.226 64.8247 134.467 63.5796 134.467 62.0437C134.467 60.5078 133.226 59.2627 131.694 59.2627C130.163 59.2627 128.922 60.5078 128.922 62.0437C128.922 63.5796 130.163 64.8247 131.694 64.8247Z" fill="#5F6368"></path><path d="M155.953 64.8247C157.484 64.8247 158.726 63.5796 158.726 62.0437C158.726 60.5078 157.484 59.2627 155.953 59.2627C154.422 59.2627 153.181 60.5078 153.181 62.0437C153.181 63.5796 154.422 64.8247 155.953 64.8247Z" fill="#5F6368"></path><path d="M112.979 48.833H201.006" stroke="#5F6368" stroke-width="2" stroke-miterlimit="10"></path><path d="M112.982 48.833V56.4808L201.052 50.9188V48.833H112.982Z" fill="#5F6368"></path><path d="M152.903 40.4908C160.061 40.4908 165.864 34.67 165.864 27.4896C165.864 20.3091 160.061 14.4883 152.903 14.4883C145.744 14.4883 139.941 20.3091 139.941 27.4896C139.941 34.67 145.744 40.4908 152.903 40.4908Z" fill="#1E8E3E" class="VnOHwf-Wvd9Cc"></path><path d="M144.1 27.6278C145.417 27.6278 145.417 25.542 144.1 25.542C142.714 25.542 142.714 27.6278 144.1 27.6278Z" fill="#5F6368"></path><path d="M146.18 33.9559C147.497 33.9559 147.497 31.8701 146.18 31.8701C144.863 31.8701 144.863 33.9559 146.18 33.9559Z" fill="white"></path><path d="M149.993 32.0496C151.31 32.0496 151.31 29.9639 149.993 29.9639C148.607 29.9639 148.607 32.0496 149.993 32.0496Z" fill="white"></path><path d="M153.412 35.1092C154.729 35.1092 154.729 33.0234 153.412 33.0234C152.026 33.0234 152.026 35.1092 153.412 35.1092Z" fill="white"></path><path d="M148.883 37.8485C150.2 37.8485 150.2 35.7627 148.883 35.7627C147.497 35.7627 147.497 37.8485 148.883 37.8485Z" fill="white"></path><path d="M153.111 14.4878C145.972 14.3488 140.08 20.1194 139.941 27.2805C139.941 29.3663 140.357 31.313 141.189 33.0511L161.082 17.4079C158.933 15.6002 156.161 14.4878 153.111 14.4878Z" fill="#CEEAD6" class="VnOHwf-Ysl7Fe"></path><path d="M151.725 16.0175C151.24 10.9421 152.072 5.72773 154.013 1" stroke="#5F6368" stroke-width="2" stroke-miterlimit="10" stroke-linecap="round"></path><path d="M151.378 9.62108C153.388 7.67437 146.11 0.930395 144.793 5.10193C143.477 9.20393 149.715 11.2897 151.378 9.62108Z" stroke="#5F6368" stroke-width="2" stroke-miterlimit="10" stroke-linecap="round"></path><path d="M152.21 9.75949C150.547 7.53467 158.795 1.97263 159.419 6.35274C160.043 10.5243 153.597 11.6367 152.21 9.75949Z" stroke="#5F6368" stroke-width="2" stroke-miterlimit="10" stroke-linecap="round"></path></svg>