<svg viewBox="0 0 312.5 308.60782283369844">
          <defs id="SvgjsDefs2794"></defs>
          <g transform="matrix(2.8950081747227903,0,0,2.8950081747227903,-0.16083872809651176,0)" fill="#018cfd">
            <g>
              <path
                fill="#fff"
                d="M19.8 15.3h.5l-.4-.2zm.5.1zm.8-.7c0 .1 0 .1.1.1l.4-.3c-.2-.1-.3-.1-.5.2zm.4-.2zm-4.1 2.3zm-.2.6l.3-.2c.1-.1.1-.2.1-.2h-.2l-.2.4c-.1-.1-.1 0 0 0zm2.2-2.9h-.1l-.2.2h.3zm-2.1 2.4l.6-.5c.1-.1.1-.2.1-.3h-.3l-1.2 1.1-.2.4.7-.6zm-1.1.8z"></path>
              <path
                fill="#fff"
                d="M9.7 25v-.2a1.7 1.7 0 0 1 .7-1.1l.9-.6.5-.6.7-.7.4-.4.4-.3a1.9 1.9 0 0 0 .8-.9l.4-.5a5.9 5.9 0 0 0 1-1.3l.2-.3.3-.2-.2-.3.4-.5c.8-.6 1.4-1.4 2.2-2l.3-.3a1.4 1.4 0 0 1 .5-.6l.8-.4h.4a1.4 1.4 0 0 0 .7-.6V13a3.5 3.5 0 0 1 1.3-1.4l.8-.5.2-.2.4-.4 1-.5h.2l-1.1.4-1.4 1c-.6.5-1.4.6-1.8 1.4h.3c-.7.2-1.4.5-1.7 1.2s-.8.6-1.2.9a.4.4 0 0 0-.3.4c-.8-.1-1.1.5-1.5.9v.8a3.9 3.9 0 0 0-1.6 1.4c-1.6.1-1.6 2.1-3 2.5h-.1a.2.2 0 0 0 0 .2c-.3 0-.5.2-.4.5l-.2.5c-.7.4-.6 1.1-1 1.7-.8.5-1.1 1.5-1.7 2.2l.3.5.2-.2a11.6 11.6 0 0 1 .9-1.3zM53.9 3.3l.6.2h.2a2.2 2.2 0 0 0 1.4.2 4.1 4.1 0 0 1 1.9.1h1.2a1.4 1.4 0 0 1 1.2.3.1.1 0 0 1 0 .1H60a.1.1 0 0 0 0 .1h.7a1.8 1.8 0 0 1 1.3 0c.2 0 .1.1.2.2l.5.2h-.2c-.2-.4-.5-.4-.8-.4a9.7 9.7 0 0 0-4.3-.9h-.8A9.8 9.8 0 0 0 53 3h.2zm7.3 3.1zM50.3 4.7zm10.9 1.7h.2-.2zM19 14.7zm32.1-10zm17.6 2.2a.9.9 0 0 0 1 .2h.6a3.1 3.1 0 0 0-1.8-.7l-.7-.2.5.3zm-3.4-1.3c0 .1.1.2.2.3h.2l.5-.3a4.2 4.2 0 0 0-1.7-.6l.7.4zm7.4 2.7l.8.5c-.2-.3-.4-.5-.8-.5z"></path>
              <path
                fill="#fff"
                d="M99 76.1l.6-1.6.6-1.5c.2-.5.6-1.8.8-2.6a1.7 1.7 0 0 1 .3-.7h.1v-1.1c.5-.1.4-.6.5-.9l.8-4.7a12.7 12.7 0 0 0 0-6.2 1.9 1.9 0 0 0-.5-1.6v-4.3c-.3-.9.3-1.9-.4-2.7L101 45a.4.4 0 0 0 0-.2l-.2-.6a.5.5 0 0 1 0-.4h.1c.3 0 .3-.5.3-.9a3 3 0 0 0-.4-1.1l-.3-.4a1.1 1.1 0 0 1-.2-.7 6.7 6.7 0 0 0-.2-2v-.6c-.2-.7-.4-1.5-.6-2.2l-.2-.5a2.5 2.5 0 0 1-.4-1.1 2.5 2.5 0 0 0-.3-.8l-.6-1a.8.8 0 0 0-.6-.2h-.1V32h-.2v-.8H97V31a.4.4 0 0 0 0-.1v-.2c.1-.2.1-.3-.1-.5a1.8 1.8 0 0 1-.4-.6l-.2-.6a2.9 2.9 0 0 0-.7-1.2 2.2 2.2 0 0 1-.5-.7l-.7-1.6a4.3 4.3 0 0 0-.6-1l-.6-.8a2.4 2.4 0 0 1-.4-.8l-.2-.3a.6.6 0 0 1-.1-.5.5.5 0 0 0-.2-.4l-.4-.3v.2c.1.2 0 .3-.1.3h-.2l.3 1 .3.5.7.9h-.1l-.2-.2-.2-.2a1.3 1.3 0 0 0-1.2-1.1v-.7c-.3-1.2-1.6-1.3-2.2-2.1a1.5 1.5 0 0 0-1.1-.9l-.8-.9a11.3 11.3 0 0 0-3.1-3l-.8-.6-.4-.3c-.7-.7-1-1.8-2.2-1.8l-.8-.5-.9-.7a2.2 2.2 0 0 0-1.8-1.3 5.1 5.1 0 0 0-2.3-1.2l.2.2.5.4 1.3.7a8.5 8.5 0 0 1 2.1 1.6 6.8 6.8 0 0 0 1.5 1.1l.6.5c.1.1.2.2.1.3H81l-.9-.3a5.6 5.6 0 0 1-2-.8l-1.2-.6-1.3-.7h-.2c-.3-.1-.4-.4-.8-.5l-.8-.2-2.5-.5a2.6 2.6 0 0 1-.9-.7 1.7 1.7 0 0 1-.9-.3l-1-.4a18.1 18.1 0 0 1-2.8-.8l-.6-.2-1-.3h-.5l-.2-.3v-.1h-1.6l-.6-.5-.4.2-.4.2h-.2l-.9-.5c-.6.6-1.1-.2-1.6-.1l-1-.3a1.2 1.2 0 0 1-1.2 0h-1.2a.6.6 0 0 1-.5-.6l.3-.2h.6a.7.7 0 0 1 .1.3c0 .2.2.2.5.2h.2l-.4-.6a1.1 1.1 0 0 0-1-.2l-1 .3H53c.3.2.2.3.2.5h-1.6l-.4-.2-.8-.4h-.1l-.7-.2h-2.3l.4-.2.8-.2h.3l1.7-.3 1.1-.2.6-.2h-1.1a8.4 8.4 0 0 0-3.4 0h-1.3L43 3.6c-1.4.1-2.8 0-3.9 1.2-2.5-.4-4.7.7-6.9 1.8l-2.2.9a6.7 6.7 0 0 0-3.7 1.8h.3l.5-.3.8-.5 1.3-.6 1-.2a6 6 0 0 1 2-.9l.9-.3h.2c.1.2.5 0 .7 0h.2c.1 0 .1.1 0 .1l-.6.4 1-.3.8-.2-1.3.7-1.3.4a1 1 0 0 0-.6.5l-.3.5h.3l.4-.2a1.4 1.4 0 0 1 .9-.6l1.5-.5h.5a.1.1 0 0 1 .1.2c-.2.2-.6.3-.8.5h.2l-3.2.9-3.8 1.6a5.2 5.2 0 0 1-2.3 1.2 6.6 6.6 0 0 1-1.7 1.1l-.8.2a1.5 1.5 0 0 1-1.3.9l-.3.5a3.7 3.7 0 0 1-1.2 1.1h-.1v-.1l-.2.2-.2.2-1 .2h-.5l-.4.5c-.1.1-.1.2 0 .2h.1c-.6.6-1 1.4-1.8 1.7L15 19.9c-.6 1.2-1.8 1.6-2.6 2.6s-1.4 3.9-3.9 4.3l-.2-.3-.2.5a2.7 2.7 0 0 1-.4.8 16.9 16.9 0 0 0-1.2 2.1.8.8 0 0 0-.1.5 1.4 1.4 0 0 1-.2.8l-.5 1.1h.2c.3 0 .3.3.4.6l.8-1.1a2.2 2.2 0 0 1 .6-.7 2 2 0 0 0 .9-.9l.3-.3.4-.4.6-1.1h.2c.1.1.1.1.2 0l.2-.4h.5v.8l.5-.5a.5.5 0 0 0 0-.5.4.4 0 0 1 .1-.3 1.5 1.5 0 0 0 .3-.5 1.3 1.3 0 0 1 .8-.9l.3-.2.3-.3a2.4 2.4 0 0 0 .8-1l-.2-.3c0-.1.1-.3.2-.4h.5l.6-.8.6-.3h.2a48.8 48.8 0 0 0-5.5 7.2h-.1.1a48.4 48.4 0 0 0-5.3 11.2h-.5l-.5-.4c-.2-.2-.1-.7-.4-.9h.1c.3-.5-.1-1.2.3-1.7s.1-1.4-.9-1.2-1.5.5-1.3 1.5-1 1.8-1.1 2.9-.5.5-.3.9v3.9c.1.8-.5 1.8.8 2.1l1.3.9c.1.5-.5 1.6.9 1.3a49.2 49.2 0 0 0-.3 5c0 1.1.1 2.2.1 3.3v-.4c-.1-.4-.1-.8-.2-1.3l-.3.3v-.2h-.5c0 .5-.1.8-.4.9a.9.9 0 0 0-.1.5c0 .1.1.3.2.2s.4.2.7.4-.2.3-.4.2-.2.1-.2.3v.3l.5 1.5c0 .3-.1.6-.1.9a1.7 1.7 0 0 0 .2.8h-.3v-.3l-.7-.2v-.6a1.5 1.5 0 0 0 0-.5 14.6 14.6 0 0 1-.3-1.8 16.6 16.6 0 0 1-.2-3.5.9.9 0 0 1 .1-.5v.2a2.9 2.9 0 0 1 .1.5.8.8 0 0 0 .1.4c.1.2.2.4.4.4s.1-.1.1-.2a2.1 2.1 0 0 0-.1-.5 4.2 4.2 0 0 1-.3-1.3 1.5 1.5 0 0 0-.3-.7 1.6 1.6 0 0 1-.2-.9v-.8c0-.3.1-.6.1-.9a.5.5 0 0 0-.1-.4h-.1c-.8.4-.7.2-1 1.6V55c0 .7-.1 1.4 0 2.1a10.8 10.8 0 0 0 .2 2.3 1.8 1.8 0 0 1 0 .5 3.1 3.1 0 0 0 .1.9 5.9 5.9 0 0 1 .1 1.3 3.9 3.9 0 0 0 .2 1.7 1.2 1.2 0 0 1 0 .4 2.1 2.1 0 0 0 .1.8 4.9 4.9 0 0 1 .2.9 14 14 0 0 0 .5 2.2 5 5 0 0 1 .2 1 1.7 1.7 0 0 0 .3.7 2.9 2.9 0 0 1 .5 1.2 8.5 8.5 0 0 0 .3 1l.4 1.4a5.4 5.4 0 0 0 .6 1.5 8.5 8.5 0 0 1 .8 2.1l.2.5a2.1 2.1 0 0 1 .5 1 2.1 2.1 0 0 0 .4.8 1 1 0 0 1 .2.5c.1.3.2.4.4.3h.1v.9l.5 1 .5 1 1.1 1.2.4.4c.3.3.7.5.9 1l.4.3a.7.7 0 0 1 .3.5l.2.7a3.3 3.3 0 0 0 .6.9l.4.2h.3a.2.2 0 0 1 .1.3 2.5 2.5 0 0 0 0 .5.9.9 0 0 0 .4.5h.2c.4-.1.8.2 1.2.7h.1c0-.1.1-.1 0-.2v-.2c0-.1.1-.2.2-.1a.7.7 0 0 1 .3.6v.2a4.3 4.3 0 0 0 .4 1.2c.5.3.5.3.5.1s0-.2.2-.2h.4l.2.3.8.5c.7.8 1.8.7 2.6 1.2l1.7 1.7h.2a2.9 2.9 0 0 0 1.6 1.6 1.3 1.3 0 0 0 1 .6c0 .5.6.6 1.1.7a1.2 1.2 0 0 0 .8.4h.2a1.7 1.7 0 0 0 1.5.5l.9.8 2.4.9v.2c.5 1.1 1.7.7 2.5 1l1.1.4h.4c1.2.3 2.4.9 3.7.5a.7.7 0 0 0 0 .4c1.1.7 2.4 0 3.6.4a2.9 2.9 0 0 0 1.7.1h.1l.8.2h.3l.9.2h.3a.5.5 0 0 1 .5 0 7.9 7.9 0 0 0 1.5.4h.6a.7.7 0 0 1 .7 0h3.9a5 5 0 0 0 1.6-.1h1l.5-.2H60l.6-.2.5-.3h2.2v.6H62l-1.2.2c-.4.1-.7 0-1 .1a2.4 2.4 0 0 1-1 .2l-1.3.3h-.4a3.1 3.1 0 0 0-1.5.1h-1.8a1.1 1.1 0 0 1-.9 0h-4.5a1.3 1.3 0 0 0-1.1.3H47l-.3-.2v-.3h-1.2a4.1 4.1 0 0 0-1.3-.3h-2.5l-.7-.2-.5-.2-2.1-.4h-.5l-.5-.2-2.1-.7-1.4-.4h-2.2c-.1 0-.1.1-.1.2h.2c1.3.5 2.6.9 3.9 1.5h.3l.9.2 1.4.4h1.3l.6.2.7.3 1.7.3 1.1.2 1.1.2h.8l.8.2h3.1l1 .2h2.3l1-.2H56c.4 0 .6-.1.7-.3h1a1 1 0 0 0 .8-.3c-.1.1 0 .1.1.2h.4v-.2c0-.1 0-.1.2-.2s.6-.1.7.1h.4l.3-.2c.2 0 .2 0 .2.1h.7l.5-.2.8-.4c.1.3.4.4 1.3.2l1.3-.4h1.2c.9-.1 2 0 2.7-.7h.2l.4-.3 1.1-.3a6.1 6.1 0 0 0 2-.8l.4-.2h.1l.9-.6.4-.2.5-.2h.4c.4-.1.4-.1.5-.4s0-.1-.2-.1h-.1l.4-.5h.2c.3-.1.5-.2.7-.1h.2a1.3 1.3 0 0 0 .9-.9c.3-.4 1.1-.2 1.3-.8l4.3-3.1c1.1-.1 1.4-1.1 2.2-1.7s2.3-1.1 3-2.2l.9-.4h.1a1 1 0 0 0 1.2-.7v.4c.8-.4 1.8.3 2.6-.5s0-2.7 1-3.8l.7-.5a12.1 12.1 0 0 0 1.5-4.2l.2-.2c0-.3 0-.7.4-.9a.9.9 0 0 0 .2-1.2h-.2a.3.3 0 0 0 0-.3c.7 0 .8-.7 1.2-1V77a.5.5 0 0 1 0-.2 3.8 3.8 0 0 0 .1-.7zM5.9 32.2z"></path>
              <path
                fill="#fff"
                d="M26.4 9.3l-.3.2-.4.3.5-.2zm6.1-2h.1l.3-.2h-.4zm-2.6 1l-.1.1h.1v-.1zm-1.5 1.4zm1.3-.2zm-6.3 3.1zM9.2 26.2l-.4.4H9a.4.4 0 0 0 .2-.4zm3-3.5a2.1 2.1 0 0 0 .3-.6 1.5 1.5 0 0 0-.5.5c-.1.1-.1.2 0 .2zM11 24.2V24c-.2 0-.5.3-.8.3v.2c.3.3.4.2.8-.3zm3 66.2zM73.9 9.2h.1l-.5-.3zm-2.5-1.4c.5-.1.8.4 1.2.5h.1l-.3-.2-1-.5-1.1-.5.3.2zM52.8 3.1zm11.7 2h-.1l-1.2-.2h.5zm2 .7l1.3.4a3.3 3.3 0 0 0-1.3-.4zm-9 0a1 1 0 0 0 .2-.5h-.5l-.3.3.4.3zm9 1.6zM49.9 4.2zm2.9.7zM48.5 4zm13.8 2.1a.5.5 0 0 0 0 .1zm44.8 52.3h-.3V58h.3c.1 0 .2-.3.1-.4s-.1-.7-.3-.8a.3.3 0 0 1-.2-.3l.2-.4a.4.4 0 0 0 0-.2h-.2l-.2-.3c-.1.3-.2.6-.4.7a.5.5 0 0 0 0 .2c0 .1 0 .2-.1.2h-.1a1.1 1.1 0 0 1-.1.3 2.3 2.3 0 0 0-.4.9.4.4 0 0 0 .1.4h.1a1.7 1.7 0 0 0-.1.8v.4a1.8 1.8 0 0 1-.1.5h-.1l-.4.7v.6a1.5 1.5 0 0 1-.3 1.1h-.2l-.2-.2a.9.9 0 0 1-.1-.8 6.5 6.5 0 0 0 .1-1.7c0-.1-.1-.2-.1-.2a.5.5 0 0 0-.1.3v.6c0 .2-.1.6-.3.7s-.1.2-.1.3l-.2.6.3.5c-.2.2-.4.1-.5-.1v1h.3v.4a4.2 4.2 0 0 0-.3 1.4 3.3 3.3 0 0 0 0 .4 4 4 0 0 1-.2 1.3 2 2 0 0 0 0 .6l-.3.7a3.2 3.2 0 0 1-.3.7l-.3.6-.9 2.7c.3.9-.4 1.5-.8 2.1a2.7 2.7 0 0 1-.8 2.3v.4c0 .1.1.2.3.1l.4-.3.2-.4h.2c.1.1.2.1.4-.1h.2a.5.5 0 0 1 .1.6 2.9 2.9 0 0 0-.1.8c0 .1 0 .2.1.2h.2c.1.1.2 0 .3-.3l.2-.5h.3c.4-.1.4-.1.6-.6l.5-.9.3-.6.4-1a1.6 1.6 0 0 1 .3-1 .6.6 0 0 0 .1-.6c0-.2 0-.3.2-.6l.3-.4.5-1a4.7 4.7 0 0 1 .2-.9 3 3 0 0 0 .3-1.3 3.8 3.8 0 0 1 .3-.9v-.5c-.1-.2-.1-.2 0-.6s.1-.2.2-.2a.4.4 0 0 1 .1.3l.2-.5a2.3 2.3 0 0 0 .2-.9v-.3c0-.1 0-.3-.1-.3v.4c-.2 0-.3.2-.5.3a6.4 6.4 0 0 0 .1-.8l.4-.2a.7.7 0 0 0 .2-.6 1.4 1.4 0 0 1 0-.3 4.8 4.8 0 0 0 .2-1.4v-.2l.3-1h.1a.3.3 0 0 0 .1-.3h-.1a.9.9 0 0 1 .2-.8 1.5 1.5 0 0 0-.9-1zm-1.2 7.8zm-.2-9.9zm0 0zM9.1 30.8a.3.3 0 0 0 0-.2l-.2-.2-.2.2-.3.6c0 .3-.3.6-.3.9v.2h.1zm96.3 24.8h.1a1.7 1.7 0 0 0 .2-1.2.5.5 0 0 1 .2-.5h.1v-.2l-.2-.2h-.1c-.1.1-.2.3-.3.3s-.1.1-.1.3v.3a2.2 2.2 0 0 0 .1 1.2zM13.2 90.1c-.1 0 0 .2 0 .3l.8.8h.1c-.2-.3-.3-.6-.2-.7a.9.9 0 0 1-.5-.2zm.8.3zm92.3-35.7h.1a2 2 0 0 0 0-.6c-.3.1-.3.1-.3.6s.1.1.2 0z"></path>
              <path
                fill="#fff"
                d="M106.7 62a.6.6 0 0 0 .1-.5c0-.1-.1-.2-.1-.1h-.2v.2c0 .4.1.5.2.4zm.1-8.2h-.1v.6a1 1 0 0 0 .1-.6zM17.1 92.6h-.2v.2l.2.2h.2v-.2zm86.6-33.3c0-.1 0-.1-.1-.1zM9.9 86.5l.5.5-.4-.6z"></path>
              <circle cx="10.5" cy="87.1" transform="rotate(-24.8 10.4 87.159)"></circle>
              <path
                fill="#fff"
                d="M9.7 30.1h-.1v.2-.2h.1zm83.2-6.6l-.2-.3h-.1zm-14.7 77.1zM5.9 32.2zm-.1.2a.3.3 0 0 0 .1-.2v.2zm1.9-4.9zM61.5 2.4zm42.8 58.2v.1-.1zM16.4 92.5h-.1c.1.1.2 0 .1-.1zm.2.7h.1l-.1-.1v.1zm73.9-71.3zm15.2 34.4zM14.6 91.7zm92.1-37zm-.8 11.4zM34.6 0z"></path>
            </g>
          </g>
          <g
            transform="matrix(2.067183421779437,0,0,2.067183421779437,105.04392747028504,61.57364351782898)"
            fill="#fafafa">
            <polygon
              points="5.3,22.4 25.8,32.2 44,22.4 24.6,12.3 "
              style="fill: 'none', stroke: 'rgb(29, 155, 240)', strokeMiterlimit: 10"></polygon>
            <path
              d="M14.5,27v7c0,0,9.5,9.2,20.9,0"
              style="fill: 'none', stroke: 'rgb(29, 155, 240)', strokeMiterlimit: 10"></path>
            <line
              x1="41.5"
              y1="24"
              x2="41.5"
              y2="29"
              style="fill: 'none', stroke: 'rgb(29, 155, 240)', strokeMiterlimit: 10"></line>
            <circle
              cx="41.2"
              cy="30.4"
              r="1.7"
              style="fill: 'none', stroke: 'rgb(29, 155, 240)', strokeMiterlimit: 10"></circle>
          </g>
          <g
            transform="matrix(1.205400095312245,0,0,1.205400095312245,55.999999281525554,147.6567044494559)"
            fill="rgb(29, 155, 240)">
            <path d="M16.44 25.439999999999998 c0.68 0.48 1.12 1.2 1.12 2.28 l0 7 c0 3.72 -2.16 5.28 -8.76 5.28 c-6.72 0 -8.8 -1.64 -8.8 -5.28 l0 -4.36 l5.92 0 l0 1.2 c0 0.96 0.72 1.4 3.04 1.4 c2.28 0 3.04 -0.44 3.04 -1.4 l0 -1.96 c0 -0.6 -0.2 -1 -0.96 -1.24 c-0.32 -0.08 -0.64 -0.12 -1 -0.12 c-0.48 0.04 -2.32 0.04 -2.68 0.04 l0 0 c-4.2 -0.16 -6.24 -1.12 -7 -3.04 c-0.24 -0.64 -0.36 -1.36 -0.36 -2.2 l0 -7.32 c0 -3.6 2.08 -5.48 8.44 -5.48 c7.04 0 8.44 1.8 8.44 5.48 l0 6.04 l-5.76 0 l0 -3.2 c0 -1.76 -0.36 -2.6 -2.08 -2.6 c-1.6 0 -2.08 0.88 -2.08 2.6 l0 3.44 l0 0 c0 0.2 0.2 2.44 2.6 2.44 c1.76 0 5.12 -0.24 6.88 1 z M30.159999999999997 10.239999999999998 c8.88 0 10.64 2.96 10.64 9.04 l0 6.72 l-5.64 0 l0 -3.48 c0 -2.52 -0.72 -3.8 -4.44 -3.8 c-3.32 0 -4.44 1.32 -4.44 3.8 l0 6 c0 2.52 1.08 3.64 4.44 3.64 c3.28 0 4.4 -1 4.44 -3.44 l5.64 0 l0 2.6 c0 6.08 -2.64 8.68 -10.64 8.68 c-8.08 0 -10.6 -2.68 -10.6 -8.68 l0 -12.04 c0 -5.96 2.6 -9.04 10.6 -9.04 z M56.36 25 l0 -14.76 l5.96 0 l0 29.76 l-5.96 0 l0 -6.48 l-5.8 0 l0 6.48 l-7.76 0 l0 -29.76 l7.76 0 l0 14.76 l5.8 0 z M64.32 40 l0 -29.76 l17.32 0 l0 8.36 l-10.48 0 l0 3.68 l8.6 0 l0 5.96 l-8.6 0 l0 3.4 l10.48 0 l0 8.36 l-17.24 0 l-0.08 0 z M95.15999999999998 10.239999999999998 c7.24 0 9.64 3.08 9.64 9.04 l0 12.04 c0 6 -2.32 8.68 -9.64 8.68 l-11.52 0 l0 -29.76 l11.52 0 z M96.95999999999998 28.64 l0 -5.2 c0 -2.64 -0.64 -3.92 -3.64 -3.92 c-0.76 0 -1.4 0.12 -1.88 0.32 l0 12.32 c0.48 0.16 1.12 0.24 1.88 0.24 c2.72 0 3.64 -1.12 3.64 -3.76 z M118.31999999999998 30.52 c0 -0.16 0.04 -18.08 0.04 -18.08 l6.28 0 l0 18.88 c0 6.08 -2.2 8.68 -8.92 8.68 c-6.8 0 -8.92 -2.68 -8.92 -8.68 l0 -21.08 l7.44 0 l0 20.24 c0.08 2.84 4.04 2.88 4.08 0.04 z M133.48 10.239999999999998 l0 20.8 l13.12 0 l0 8.96 l-19.96 0 l0 -29.76 l6.84 0 z M148.6 40 l0 -29.76 l17.32 0 l0 8.36 l-10.48 0 l0 3.68 l8.6 0 l0 5.96 l-8.6 0 l0 3.4 l10.48 0 l0 8.36 l-17.24 0 l-0.08 0 z"></path>
          </g>
          <g
            transform="matrix(0.2571693924237723,0,0,0.2571693924237723,75.72997202758991,205.64214579930206)"
            fill="rgb(29, 155, 240)">
            <path d="M10.85 10.2 c0.18 0 0.3 0.12 0.3 0.3 l0 1.19 c0 0.18 -0.12 0.3 -0.3 0.3 l-4.79 0 l0 7.71 c0 0.18 -0.12 0.3 -0.3 0.3 l-1.56 0 c-0.18 0 -0.3 -0.12 -0.3 -0.3 l0 -7.71 l-2.55 0 c-0.18 0 -0.3 -0.12 -0.3 -0.3 l0 -1.19 c0 -0.18 0.12 -0.3 0.3 -0.3 l2.55 0 l0 -0.98 c0 -3.12 2.08 -3.94 4.39 -3.94 c1.17 0 2.76 0.22 2.76 0.65 l0 1.13 c0 0.2 -0.14 0.32 -0.36 0.28 c-0.24 -0.04 -0.78 -0.23 -1.91 -0.23 c-1.46 0 -2.72 0.43 -2.72 2.31 l0 0.78 l4.79 0 z M28.823500000000003 20.26 c-2.85 0 -5.15 -2.26 -5.15 -5.14 c0 -2.87 2.3 -5.14 5.15 -5.14 c2.84 0 5.14 2.27 5.14 5.14 c0 2.88 -2.3 5.14 -5.14 5.14 z M28.823500000000003 18.25 c1.72 0 3.05 -1.4 3.05 -3.13 c0 -1.72 -1.33 -3.14 -3.05 -3.14 c-1.73 0 -3.06 1.42 -3.06 3.14 c0 1.73 1.33 3.13 3.06 3.13 z M52.846999999999994 9.98 c2.16 0 3.75 1.32 3.75 3.81 c0 0.19 -0.1 0.3 -0.29 0.32 l-1.56 0.22 c-0.19 0.03 -0.3 -0.08 -0.32 -0.27 c-0.09 -1.46 -0.99 -2.07 -2.27 -2.07 c-2.02 0 -2.96 1.69 -2.96 2.29 l0 5.42 c0 0.18 -0.12 0.3 -0.3 0.3 l-1.56 0 c-0.18 0 -0.3 -0.12 -0.3 -0.3 l0 -9.2 c0 -0.18 0.12 -0.3 0.3 -0.3 l1.48 0 c0.18 0 0.28 0.12 0.3 0.3 l0.08 1.32 l0.22 0 c0.64 -0.94 1.83 -1.84 3.43 -1.84 z M92.444 18.25 c1.06 0 1.92 -0.44 2.5 -1.18 c0.12 -0.15 0.24 -0.18 0.4 -0.08 l1.15 0.67 c0.16 0.1 0.22 0.24 0.1 0.4 c-0.86 1.32 -2.38 2.2 -4.19 2.2 c-2.98 0 -5.16 -2.23 -5.16 -5.14 s2.18 -5.14 5.16 -5.14 c1.81 0 3.33 0.88 4.19 2.2 c0.12 0.16 0.06 0.3 -0.1 0.4 l-1.15 0.67 c-0.16 0.1 -0.28 0.07 -0.4 -0.08 c-0.58 -0.74 -1.44 -1.19 -2.5 -1.19 c-1.78 0 -3.1 1.28 -3.1 3.14 s1.32 3.13 3.1 3.13 z M114.4375 20.26 c-2.85 0 -5.15 -2.26 -5.15 -5.14 c0 -2.87 2.3 -5.14 5.15 -5.14 c2.84 0 5.14 2.27 5.14 5.14 c0 2.88 -2.3 5.14 -5.14 5.14 z M114.4375 18.25 c1.72 0 3.05 -1.4 3.05 -3.13 c0 -1.72 -1.33 -3.14 -3.05 -3.14 c-1.73 0 -3.06 1.42 -3.06 3.14 c0 1.73 1.33 3.13 3.06 3.13 z M141.31099999999998 18.19 c0.18 0 0.3 0.12 0.3 0.3 l0 1.21 c0 0.18 -0.12 0.3 -0.3 0.3 l-8.71 0 c-0.18 0 -0.3 -0.12 -0.3 -0.3 l0 -1.21 c0 -0.18 0.12 -0.3 0.3 -0.3 l3.49 0 l0 -10.38 l-3.26 0 c-0.18 0 -0.3 -0.12 -0.3 -0.3 l0 -1.21 c0 -0.18 0.12 -0.3 0.3 -0.3 l5.12 0 c0.18 0 0.3 0.12 0.3 0.3 l0 11.89 l3.06 0 z M163.19449999999998 18.19 c0.18 0 0.3 0.12 0.3 0.3 l0 1.21 c0 0.18 -0.12 0.3 -0.3 0.3 l-8.71 0 c-0.18 0 -0.3 -0.12 -0.3 -0.3 l0 -1.21 c0 -0.18 0.12 -0.3 0.3 -0.3 l3.49 0 l0 -10.38 l-3.26 0 c-0.18 0 -0.3 -0.12 -0.3 -0.3 l0 -1.21 c0 -0.18 0.12 -0.3 0.3 -0.3 l5.12 0 c0.18 0 0.3 0.12 0.3 0.3 l0 11.89 l3.06 0 z M181.06799999999998 9.98 c2.96 0 4.74 2.27 4.74 4.89 c0 0.74 -0.09 1.11 -0.65 1.11 l-6.99 0 c0.23 1.52 1.5 2.5 3.31 2.5 c1.05 0 1.78 -0.32 2.45 -0.83 c0.16 -0.12 0.28 -0.15 0.43 0 l0.66 0.66 c0.15 0.15 0.16 0.29 0 0.45 c-0.95 0.95 -2.19 1.5 -3.76 1.5 c-3.12 0 -5.19 -2.26 -5.19 -5.14 s2.07 -5.14 5 -5.14 z M181.07799999999997 11.83 c-1.53 0 -2.67 1 -2.89 2.59 l5.72 0 c-0.16 -1.57 -1.27 -2.59 -2.83 -2.59 z M208.2515 10.2 c0.18 0 0.3 0.12 0.3 0.3 l0 9.35 c0 3.09 -2.72 4.11 -5.07 4.11 c-1.6 0 -3.04 -0.45 -4.01 -1.1 c-0.15 -0.1 -0.17 -0.25 -0.09 -0.41 l0.5 -0.93 c0.09 -0.16 0.23 -0.21 0.4 -0.12 c0.86 0.46 1.78 0.73 3.04 0.73 c1.48 0 3.2 -0.57 3.2 -2.37 l0 -1.29 c-0.74 0.93 -1.81 1.58 -3.22 1.58 c-2.77 0 -4.77 -2.27 -4.77 -5.03 s2 -5.03 4.77 -5.03 c1.35 0 2.43 0.63 3.18 1.55 l0.06 -1.04 c0.02 -0.18 0.12 -0.3 0.3 -0.3 l1.41 0 z M203.5315 18.07 c1.67 0 2.89 -1.45 2.89 -3.07 c0 -1.6 -1.22 -3.03 -2.89 -3.03 s-2.91 1.34 -2.91 3.03 c0 1.71 1.24 3.07 2.91 3.07 z M226.625 9.98 c2.96 0 4.74 2.27 4.74 4.89 c0 0.74 -0.09 1.11 -0.65 1.11 l-6.99 0 c0.23 1.52 1.5 2.5 3.31 2.5 c1.05 0 1.78 -0.32 2.45 -0.83 c0.16 -0.12 0.28 -0.15 0.43 0 l0.66 0.66 c0.15 0.15 0.16 0.29 0 0.45 c-0.95 0.95 -2.19 1.5 -3.76 1.5 c-3.12 0 -5.19 -2.26 -5.19 -5.14 s2.07 -5.14 5 -5.14 z M226.635 11.83 c-1.53 0 -2.67 1 -2.89 2.59 l5.72 0 c-0.16 -1.57 -1.27 -2.59 -2.83 -2.59 z M248.51850000000002 14.3 c2.11 0.27 4.56 0.53 4.56 2.94 c0 1.79 -1.48 3.02 -4.51 3.02 c-2.62 0 -4.39 -0.77 -4.62 -3.1 c-0.02 -0.2 0.11 -0.3 0.29 -0.3 l1.49 0 c0.18 0 0.27 0.08 0.29 0.22 c0.15 1.01 1.09 1.38 2.51 1.38 c1.54 0 2.43 -0.4 2.43 -1.26 c0 -0.91 -1.04 -1.13 -2.44 -1.3 c-2.08 -0.27 -4.38 -0.55 -4.38 -2.92 c0 -1.77 1.38 -3 4.23 -3 c2.48 0 4.27 0.76 4.5 3.09 c0.02 0.2 -0.11 0.3 -0.29 0.3 l-1.49 0 c-0.18 0 -0.27 -0.08 -0.29 -0.22 c-0.15 -1.01 -1.11 -1.38 -2.4 -1.38 c-1.33 0 -2.15 0.38 -2.15 1.25 s0.88 1.1 2.27 1.28 z M293.5855 18.21 c0.25 0.06 0.36 0.14 0.36 0.35 l0 1.19 c0 0.23 -0.22 0.32 -0.57 0.33 c-1.45 0.03 -2.13 -0.5 -2.13 -1.64 l-0.09 0 c-1.02 1.16 -2.74 1.8 -4.15 1.8 c-2.19 0 -3.33 -1.09 -3.33 -2.79 c0 -1.77 1.13 -2.67 3.36 -3 l2.33 -0.36 c0.83 -0.13 1.27 -0.24 1.39 -0.47 c-0.05 -1.36 -0.83 -1.8 -2.12 -1.8 c-1.27 0 -2.19 0.34 -2.34 1.35 c-0.02 0.14 -0.11 0.22 -0.29 0.22 l-1.49 0 c-0.18 0 -0.31 -0.1 -0.29 -0.3 c0.24 -2.33 1.98 -3.11 4.43 -3.11 c2.84 0 4.2 1.33 4.2 3.74 l0 3.67 c0 0.44 0.23 0.72 0.73 0.82 z M287.4155 18.39 c1.11 0 2.28 -0.25 3.34 -1.31 l0 -2.01 c-0.11 0.23 -0.5 0.34 -1.25 0.46 l-2.1 0.33 c-1.18 0.19 -1.57 0.66 -1.57 1.32 c0 0.73 0.48 1.21 1.58 1.21 z M312.43899999999996 9.98 c2.09 0 3.54 1.42 3.54 4.04 l0 5.68 c0 0.18 -0.12 0.3 -0.3 0.3 l-1.56 0 c-0.18 0 -0.3 -0.12 -0.3 -0.3 l0 -5.36 c0 -1.67 -0.86 -2.37 -2.17 -2.37 c-1.9 0 -2.72 1.64 -2.72 2.08 l0 5.65 c0 0.18 -0.12 0.3 -0.3 0.3 l-1.56 0 c-0.18 0 -0.3 -0.12 -0.3 -0.3 l0 -9.2 c0 -0.18 0.12 -0.3 0.3 -0.3 l1.48 0 c0.18 0 0.28 0.12 0.3 0.3 l0.08 1.32 l0.21 0 c0.58 -0.94 1.65 -1.84 3.3 -1.84 z M338.6625 6 c0.18 0 0.3 0.12 0.3 0.3 l0 13.4 c0 0.18 -0.12 0.3 -0.3 0.3 l-1.41 0 c-0.18 0 -0.28 -0.12 -0.3 -0.3 l-0.07 -0.92 c-0.74 0.87 -1.81 1.48 -3.27 1.48 c-2.8 0 -4.56 -2.24 -4.56 -5.14 s1.71 -5.14 4.56 -5.14 c1.58 0 2.52 0.75 3 1.66 l0.19 0 l0 -5.34 c0 -0.18 0.12 -0.3 0.3 -0.3 l1.56 0 z M334.0325 18.28 c1.77 0 2.87 -1.3 2.87 -3.18 s-1.1 -3.14 -2.87 -3.14 c-1.81 0 -2.89 1.26 -2.89 3.14 s1.08 3.18 2.89 3.18 z M379.21950000000004 10.2 c0.18 0 0.3 0.12 0.3 0.3 l0 9.2 c0 0.18 -0.12 0.3 -0.3 0.3 l-1.48 0 c-0.18 0 -0.28 -0.12 -0.3 -0.3 l-0.08 -1.33 l-0.2 0 c-0.61 0.95 -1.67 1.85 -3.27 1.85 c-2.1 0 -3.58 -1.42 -3.58 -4.04 l0 -5.68 c0 -0.18 0.12 -0.3 0.3 -0.3 l1.56 0 c0.18 0 0.3 0.12 0.3 0.3 l0 5.36 c0 1.67 0.88 2.38 2.29 2.38 c1.76 0 2.6 -1.65 2.6 -2.09 l0 -5.65 c0 -0.18 0.12 -0.3 0.3 -0.3 l1.56 0 z M398.613 9.98 c2.09 0 3.54 1.42 3.54 4.04 l0 5.68 c0 0.18 -0.12 0.3 -0.3 0.3 l-1.56 0 c-0.18 0 -0.3 -0.12 -0.3 -0.3 l0 -5.36 c0 -1.67 -0.86 -2.37 -2.17 -2.37 c-1.9 0 -2.72 1.64 -2.72 2.08 l0 5.65 c0 0.18 -0.12 0.3 -0.3 0.3 l-1.56 0 c-0.18 0 -0.3 -0.12 -0.3 -0.3 l0 -9.2 c0 -0.18 0.12 -0.3 0.3 -0.3 l1.48 0 c0.18 0 0.28 0.12 0.3 0.3 l0.08 1.32 l0.21 0 c0.58 -0.94 1.65 -1.84 3.3 -1.84 z M420.0765 8.13 c-0.7 0 -1.25 -0.55 -1.25 -1.24 c0 -0.7 0.55 -1.25 1.25 -1.25 c0.69 0 1.24 0.55 1.24 1.25 c0 0.69 -0.55 1.24 -1.24 1.24 z M424.1365 18.19 c0.18 0 0.3 0.12 0.3 0.3 l0 1.21 c0 0.18 -0.12 0.3 -0.3 0.3 l-8.61 0 c-0.18 0 -0.3 -0.12 -0.3 -0.3 l0 -1.21 c0 -0.18 0.12 -0.3 0.3 -0.3 l3.49 0 l0 -6.18 l-2.99 0 c-0.18 0 -0.3 -0.12 -0.3 -0.3 l0 -1.21 c0 -0.18 0.12 -0.3 0.3 -0.3 l4.85 0 c0.18 0 0.3 0.12 0.3 0.3 l0 7.69 l2.96 0 z M444.63 10.44 c0.07 -0.16 0.2 -0.24 0.36 -0.24 l1.57 0 c0.22 0 0.33 0.12 0.24 0.34 l-3.87 9.22 c-0.06 0.16 -0.2 0.24 -0.36 0.24 l-1.64 0 c-0.16 0 -0.3 -0.08 -0.36 -0.24 l-3.87 -9.22 c-0.09 -0.22 0.02 -0.34 0.24 -0.34 l1.56 0 c0.16 0 0.3 0.08 0.36 0.24 l2.89 7.13 z M464.1635 9.98 c2.96 0 4.74 2.27 4.74 4.89 c0 0.74 -0.09 1.11 -0.65 1.11 l-6.99 0 c0.23 1.52 1.5 2.5 3.31 2.5 c1.05 0 1.78 -0.32 2.45 -0.83 c0.16 -0.12 0.28 -0.15 0.43 0 l0.66 0.66 c0.15 0.15 0.16 0.29 0 0.45 c-0.95 0.95 -2.19 1.5 -3.76 1.5 c-3.12 0 -5.19 -2.26 -5.19 -5.14 s2.07 -5.14 5 -5.14 z M464.1735 11.83 c-1.53 0 -2.67 1 -2.89 2.59 l5.72 0 c-0.16 -1.57 -1.27 -2.59 -2.83 -2.59 z M487.78700000000003 9.98 c2.16 0 3.75 1.32 3.75 3.81 c0 0.19 -0.1 0.3 -0.29 0.32 l-1.56 0.22 c-0.19 0.03 -0.3 -0.08 -0.32 -0.27 c-0.09 -1.46 -0.99 -2.07 -2.27 -2.07 c-2.02 0 -2.96 1.69 -2.96 2.29 l0 5.42 c0 0.18 -0.12 0.3 -0.3 0.3 l-1.56 0 c-0.18 0 -0.3 -0.12 -0.3 -0.3 l0 -9.2 c0 -0.18 0.12 -0.3 0.3 -0.3 l1.48 0 c0.18 0 0.28 0.12 0.3 0.3 l0.08 1.32 l0.22 0 c0.64 -0.94 1.83 -1.84 3.43 -1.84 z M508.5905 14.3 c2.11 0.27 4.56 0.53 4.56 2.94 c0 1.79 -1.48 3.02 -4.51 3.02 c-2.62 0 -4.39 -0.77 -4.62 -3.1 c-0.02 -0.2 0.11 -0.3 0.29 -0.3 l1.49 0 c0.18 0 0.27 0.08 0.29 0.22 c0.15 1.01 1.09 1.38 2.51 1.38 c1.54 0 2.43 -0.4 2.43 -1.26 c0 -0.91 -1.04 -1.13 -2.44 -1.3 c-2.08 -0.27 -4.38 -0.55 -4.38 -2.92 c0 -1.77 1.38 -3 4.23 -3 c2.48 0 4.27 0.76 4.5 3.09 c0.02 0.2 -0.11 0.3 -0.29 0.3 l-1.49 0 c-0.18 0 -0.27 -0.08 -0.29 -0.22 c-0.15 -1.01 -1.11 -1.38 -2.4 -1.38 c-1.33 0 -2.15 0.38 -2.15 1.25 s0.88 1.1 2.27 1.28 z M530.624 8.13 c-0.7 0 -1.25 -0.55 -1.25 -1.24 c0 -0.7 0.55 -1.25 1.25 -1.25 c0.69 0 1.24 0.55 1.24 1.25 c0 0.69 -0.55 1.24 -1.24 1.24 z M534.684 18.19 c0.18 0 0.3 0.12 0.3 0.3 l0 1.21 c0 0.18 -0.12 0.3 -0.3 0.3 l-8.61 0 c-0.18 0 -0.3 -0.12 -0.3 -0.3 l0 -1.21 c0 -0.18 0.12 -0.3 0.3 -0.3 l3.49 0 l0 -6.18 l-2.99 0 c-0.18 0 -0.3 -0.12 -0.3 -0.3 l0 -1.21 c0 -0.18 0.12 -0.3 0.3 -0.3 l4.85 0 c0.18 0 0.3 0.12 0.3 0.3 l0 7.69 l2.96 0 z M557.3475 18.35 c0.11 0.13 0.13 0.28 0.02 0.41 c-0.42 0.52 -1.51 1.4 -3.3 1.4 c-2.05 0 -3.98 -0.76 -3.98 -3.97 l0 -4.18 l-2.48 0 c-0.18 0 -0.3 -0.12 -0.3 -0.3 l0 -1.21 c0 -0.18 0.12 -0.3 0.3 -0.3 l2.48 0 l0 -2.6 c0 -0.18 0.12 -0.3 0.3 -0.3 l1.56 0 c0.18 0 0.3 0.12 0.3 0.3 l0 2.6 l3.95 0 c0.18 0 0.3 0.12 0.3 0.3 l0 1.21 c0 0.18 -0.12 0.3 -0.3 0.3 l-3.95 0 l0 3.95 c0 1.87 1.08 2.26 2.19 2.26 c0.83 0 1.43 -0.36 1.82 -0.67 c0.14 -0.13 0.3 -0.12 0.42 0.02 z M574.771 8.13 c-0.7 0 -1.25 -0.55 -1.25 -1.24 c0 -0.7 0.55 -1.25 1.25 -1.25 c0.69 0 1.24 0.55 1.24 1.25 c0 0.69 -0.55 1.24 -1.24 1.24 z M578.8309999999999 18.19 c0.18 0 0.3 0.12 0.3 0.3 l0 1.21 c0 0.18 -0.12 0.3 -0.3 0.3 l-8.61 0 c-0.18 0 -0.3 -0.12 -0.3 -0.3 l0 -1.21 c0 -0.18 0.12 -0.3 0.3 -0.3 l3.49 0 l0 -6.18 l-2.99 0 c-0.18 0 -0.3 -0.12 -0.3 -0.3 l0 -1.21 c0 -0.18 0.12 -0.3 0.3 -0.3 l4.85 0 c0.18 0 0.3 0.12 0.3 0.3 l0 7.69 l2.96 0 z M596.7544999999999 9.98 c2.96 0 4.74 2.27 4.74 4.89 c0 0.74 -0.09 1.11 -0.65 1.11 l-6.99 0 c0.23 1.52 1.5 2.5 3.31 2.5 c1.05 0 1.78 -0.32 2.45 -0.83 c0.16 -0.12 0.28 -0.15 0.43 0 l0.66 0.66 c0.15 0.15 0.16 0.29 0 0.45 c-0.95 0.95 -2.19 1.5 -3.76 1.5 c-3.12 0 -5.19 -2.26 -5.19 -5.14 s2.07 -5.14 5 -5.14 z M596.7644999999999 11.83 c-1.53 0 -2.67 1 -2.89 2.59 l5.72 0 c-0.16 -1.57 -1.27 -2.59 -2.83 -2.59 z M618.6479999999998 14.3 c2.11 0.27 4.56 0.53 4.56 2.94 c0 1.79 -1.48 3.02 -4.51 3.02 c-2.62 0 -4.39 -0.77 -4.62 -3.1 c-0.02 -0.2 0.11 -0.3 0.29 -0.3 l1.49 0 c0.18 0 0.27 0.08 0.29 0.22 c0.15 1.01 1.09 1.38 2.51 1.38 c1.54 0 2.43 -0.4 2.43 -1.26 c0 -0.91 -1.04 -1.13 -2.44 -1.3 c-2.08 -0.27 -4.38 -0.55 -4.38 -2.92 c0 -1.77 1.38 -3 4.23 -3 c2.48 0 4.27 0.76 4.5 3.09 c0.02 0.2 -0.11 0.3 -0.29 0.3 l-1.49 0 c-0.18 0 -0.27 -0.08 -0.29 -0.22 c-0.15 -1.01 -1.11 -1.38 -2.4 -1.38 c-1.33 0 -2.15 0.38 -2.15 1.25 s0.88 1.1 2.27 1.28 z"></path>
          </g>
</svg>